PathFileType	4	(X/Y/Z)	OpenSim_Sub02_CSBaseline_Accel.trc
DataRate	CameraRate	NumFrames	NumMarkers	Units	OrigDataRate	OrigDataStartFrame	OrigNumFrames
100	100	24	8	m	100	2647	7057
Frame#	Time	torso_imu_offset_imu	pelvis_imu_offset_imu	tibia_r_imu_offset_imu	femur_r_imu_offset_imu	tibia_l_imu_offset_imu	femur_l_imu_offset_imu	toes_r_imu_offset_imu	toes_l_imu_offset_imu
				X1	Y1	Z1	X2	Y2	Z2	X3	Y3	Z3	X4	Y4	Z4	X5	Y5	Z5	X6	Y6	Z6	X7	Y7	Z7	X8		Y8	Z8	

2647	26.46000000	10.19591965	-1.11576331	6.75586888	10.47976015	2.52273389	4.11589612	11.31784175	-1.62518250	2.86253666	9.31232557	-2.24501374	-1.06460017	4.34386762	-8.79228632	3.43686739	11.72045936	0.18932866	1.12876199	4.03574111	0.86186527	9.16960230	6.98067660	6.22196617	13.58326749
2648	26.47000000	9.58023484	-0.94472868	6.87622918	10.07442585	1.99704886	3.87211975	11.04244404	-4.02634130	2.57815550	8.25284975	-1.68477380	-0.50546060	2.94610882	-8.73850165	4.53911810	11.34187725	0.20897372	1.00810363	3.86277766	0.52887425	9.39982753	19.98574455	5.25574981	21.79599234
2649	26.48000000	8.88714887	-0.67075593	6.98492203	10.10411502	1.09387563	3.68892246	10.30916167	-5.00115473	1.67384944	8.03538823	-1.12793575	-0.05185742	-0.09839757	-9.76781406	6.89177263	11.16727033	0.55686278	1.07575146	3.58611457	-0.06679686	9.25236452	14.50169928	9.29023680	25.46567869
2650	26.49000000	8.48714601	-0.42126840	6.87153095	10.23501384	0.26058960	3.56649625	9.69783923	-4.48588588	0.43948162	8.06896742	-0.64059258	0.34517087	-1.87129156	-10.73223044	7.79486453	11.46222901	1.18273517	1.02626045	3.62976888	-0.56672962	8.78049529	3.07414744	8.56431754	14.18489983
2651	26.50000000	8.59450497	-0.28303099	6.81233299	10.03950976	-0.51573495	3.37660482	9.81498072	-1.95576014	-0.60982870	8.34296351	-0.18345731	0.61351667	-1.09425322	-9.95128316	6.24582937	12.00255523	1.74250258	0.66756031	3.71934798	-0.37314175	9.16053788	-1.42967243	7.57662198	9.05291150
2652	26.51000000	8.97582858	-0.23432753	6.97064500	9.47897713	-0.92095650	3.21217914	10.10090087	1.42297642	-1.00664337	8.82774855	0.13345456	0.86966032	-0.08940340	-7.49570837	3.98643124	12.11205147	2.33211540	0.33161914	3.75718839	-0.19304143	9.00588370	-3.94958831	5.00166073	4.29067097
2653	26.52000000	9.12180847	-0.29420487	7.00962210	8.86810826	-1.01872615	3.03799284	9.83588192	4.04693751	-0.67749472	9.29227022	0.22677032	0.97859782	0.16109416	-4.60536503	2.98716272	11.79855979	2.15836648	0.10665883	3.67031916	-0.03427370	9.00211269	-3.36642793	3.26272284	4.61400959
2654	26.53000000	8.76323910	-0.27254055	6.96331990	8.51948572	-0.89770918	2.80292352	9.23521445	6.03066351	0.55132254	9.67564414	0.02784980	0.71183403	-0.64868459	-2.11942279	4.34322538	11.30613248	1.97335584	0.14062034	4.10818549	0.28654717	9.20775031	-1.27785808	1.48320213	5.90457373
2655	26.54000000	8.22869872	-0.20462345	6.86073412	8.41781321	-0.78287801	2.62959842	8.75882088	7.85906327	1.31269791	9.76104064	-0.38519279	0.18232726	-1.86200070	-0.58194992	6.58310624	10.74689800	1.57716080	0.29494533	4.23083030	0.56029636	9.00121459	0.52097266	1.60031278	8.06790854
2656	26.55000000	7.76092415	-0.15213472	6.76519183	8.53442740	-0.52856263	2.65839200	9.05729927	8.87862015	1.38905750	9.71063369	-0.76389397	-0.02427118	-1.88216599	-0.45389725	7.89157517	9.95548399	1.05037011	0.61503613	3.76134330	0.31085358	9.00143710	1.90210029	2.17601647	10.08256711
2657	26.56000000	7.48550437	-0.11062024	6.69573073	8.63920817	-0.13628155	2.68243139	9.71354442	7.41829964	1.18382957	9.51804248	-1.06633228	0.10954945	-1.22038046	-1.51707381	7.59874596	9.63004906	0.79193318	0.75486824	3.73298896	0.32552297	9.25202210	3.14105048	2.44376368	11.32030159
2658	26.57000000	7.35616874	-0.19233861	6.68776528	8.60007595	0.26190963	2.67261256	10.27988785	3.77715130	1.23619916	9.35997213	-1.33991313	0.31952654	-0.33226329	-2.80648584	6.64856792	9.13616059	0.82232103	0.36060004	4.28950540	0.16923672	9.26457387	3.70669325	1.81973691	11.79649421
2659	26.58000000	7.28327485	-0.27827158	6.74172600	8.53227430	0.63549263	2.66627162	10.43692834	-0.11454232	1.49476678	9.29646865	-1.54934569	0.49361056	0.54351464	-4.19893888	6.17666815	9.04243275	0.71638583	0.34641753	4.78450356	0.18868901	8.96324549	3.37722712	0.20409705	11.47802090
2660	26.59000000	7.29552597	-0.31711653	6.72849427	8.48757616	0.87626970	2.70060612	10.02385648	-2.81827548	1.42501608	9.22853654	-1.60436015	0.54997316	1.42926290	-5.36144043	6.03509532	8.59088413	1.02983615	0.24651140	4.49803684	0.28379672	9.16193202	3.07222089	-1.72715116	10.95314629
2661	26.60000000	7.29705259	-0.30058567	6.70514683	8.54469721	0.96313955	2.67728712	9.55852792	-4.04719221	1.02078332	9.12986217	-1.65539033	0.72655293	2.34149411	-5.56525870	5.45469369	8.37104038	1.18143294	0.18329578	4.30650562	0.05255839	9.01055654	3.33690751	-3.33203856	10.54259382
2662	26.61000000	7.28485320	-0.30854478	6.68258270	8.77414950	0.95587183	2.66669478	9.64948632	-3.50710941	0.45628055	9.18837797	-1.68794633	0.86707681	2.64508192	-4.62997633	4.81961773	8.20061408	1.33306035	0.06254208	4.45001785	-0.10587670	8.93772549	4.44070636	-4.05247804	10.64109788
2663	26.62000000	7.40159523	-0.34599412	6.70177937	8.93509278	0.71150536	2.59357822	9.91256012	-1.39503382	0.55223979	9.24297887	-1.86294250	0.77240304	2.62912474	-3.21373728	4.50743018	8.20781466	1.60186032	-0.15423755	4.60417767	-0.14772350	9.00865278	5.70053990	-3.65279932	11.15610247
2664	26.63000000	7.56619545	-0.41305250	6.81371721	8.94757377	0.42021158	2.54456695	9.80767621	1.04837154	0.71925574	9.14499725	-2.26485400	0.40182484	2.52136655	-2.42827874	4.24088734	8.17603372	1.25669657	-0.14667214	4.87795483	0.28158077	8.86907821	7.11292644	-3.04591119	11.90917987
2665	26.64000000	7.65715607	-0.45297657	6.91134117	8.89005578	0.13690394	2.53741982	9.56863244	2.97559044	0.54882078	8.93721948	-2.72898566	0.02041993	3.19111144	-2.39244421	3.89208343	8.22935373	0.81053317	-0.29076091	4.59939721	0.32693404	8.93212978	8.25404108	-2.89208118	12.35189662
2666	26.65000000	7.71154811	-0.48104764	6.99052734	8.79941578	-0.28776777	2.50291055	9.20138727	4.37809588	0.96886554	8.75945765	-3.20250470	-0.27172341	4.72107626	-2.89303143	3.27667488	7.94082884	0.33300491	-1.04174213	4.34928156	0.29347250	9.03031904	8.76260364	-2.83862554	12.34616084
2667	26.66000000	7.77150015	-0.53330866	7.09649887	8.73818729	-0.56520612	2.39484878	9.27492322	4.46471748	0.90935287	8.76233474	-3.55692577	-0.52834591	6.20810210	-3.57876281	2.39981085	7.61608588	-0.51573122	-1.03953479	4.12117203	0.11106897	9.01669404	8.92263053	-2.31544057	12.27824674
2668	26.67000000	7.84838464	-0.56210160	7.16960187	8.77862761	-0.53419987	2.29101432	9.77029052	3.13625962	1.08995916	8.73896123	-3.72054204	-0.57688728	7.01963386	-4.20620651	1.92901493	7.37821457	-1.02714584	-1.29855783	4.33846853	0.19724289	8.95613565	9.06720199	-1.28061772	12.46471400
2669	26.68000000	7.97978769	-0.56757072	7.27318967	8.90560453	-0.52018509	2.21896285	10.00294598	0.98347828	0.94815665	8.60596361	-3.49544723	-0.31273560	7.47845802	-4.61671461	2.02306389	7.44216610	-0.93926190	-1.18590937	4.57541635	0.31966126	9.03755124	9.29929778	-0.45974336	12.84607944
2670	26.69000000	8.08333018	-0.62479772	7.39743014	9.09427515	-0.33264231	2.14061125	9.99516253	-0.55454297	0.80781842	8.59176140	-2.97706949	0.14068393	7.78335225	-4.76229844	2.52654804	7.87638605	-0.37924473	-1.10567206	4.28980196	0.15299520	9.00426846	9.92982524	0.03118811	13.41100508
